<svg width="868" height="868" viewBox="0 0 868 868" fill="none" xmlns="http://www.w3.org/2000/svg">
<g filter="url(#filter0_d_1272_14434)">
<rect x="22" y="11" width="824" height="824" rx="184" fill="url(#paint0_linear_1272_14434)"/>
</g>
<path d="M338.819 250.588C299.437 250.564 261.265 264.255 230.808 289.328C200.351 314.401 179.494 349.304 171.792 388.089C164.089 426.874 170.017 467.141 188.566 502.029C207.115 536.916 237.136 564.265 273.515 579.415C309.893 594.565 350.377 596.579 388.068 585.112C425.759 573.646 458.324 549.409 480.215 516.533C502.105 483.656 511.966 444.174 508.117 404.814C504.268 365.455 486.947 328.653 459.106 300.681C443.317 284.804 424.567 272.207 403.927 263.612C383.288 255.016 361.163 250.591 338.819 250.588V250.588ZM338.819 509.89C318.494 509.898 298.795 502.828 283.079 489.885C267.362 476.941 256.602 458.926 252.63 438.908C248.658 418.891 251.721 398.109 261.297 380.105C270.873 362.101 286.37 347.989 305.146 340.173C323.922 332.357 344.816 331.321 364.267 337.241C383.719 343.162 400.524 355.672 411.82 372.641C423.115 389.61 428.202 409.988 426.214 430.301C424.225 450.614 415.284 469.606 400.914 484.041C392.767 492.242 383.089 498.747 372.433 503.183C361.777 507.618 350.354 509.898 338.819 509.89V509.89Z" fill="#C2A6F1"/>
<path d="M338.819 250.588C299.437 250.564 261.265 264.255 230.808 289.328C200.351 314.401 179.494 349.304 171.792 388.089C164.089 426.874 170.017 467.141 188.566 502.029C207.115 536.916 237.136 564.265 273.515 579.415C309.893 594.565 350.377 596.579 388.068 585.112C425.759 573.646 458.324 549.409 480.215 516.533C502.105 483.656 511.966 444.174 508.117 404.814C504.268 365.455 486.947 328.653 459.106 300.681C443.317 284.804 424.567 272.207 403.927 263.612C383.288 255.016 361.163 250.591 338.819 250.588V250.588ZM338.819 509.89C318.494 509.898 298.795 502.828 283.079 489.885C267.362 476.941 256.602 458.926 252.63 438.908C248.658 418.891 251.721 398.109 261.297 380.105C270.873 362.101 286.37 347.989 305.146 340.173C323.922 332.357 344.816 331.321 364.267 337.241C383.719 343.162 400.524 355.672 411.82 372.641C423.115 389.61 428.202 409.988 426.214 430.301C424.225 450.614 415.284 469.606 400.914 484.041C392.767 492.242 383.089 498.747 372.433 503.183C361.777 507.618 350.354 509.898 338.819 509.89V509.89Z" fill="url(#paint1_radial_1272_14434)"/>
<path d="M338.819 250.588C299.437 250.564 261.265 264.255 230.808 289.328C200.351 314.401 179.494 349.304 171.792 388.089C164.089 426.874 170.017 467.141 188.566 502.029C207.115 536.916 237.136 564.265 273.515 579.415C309.893 594.565 350.377 596.579 388.068 585.112C425.759 573.646 458.324 549.409 480.215 516.533C502.105 483.656 511.966 444.174 508.117 404.814C504.268 365.455 486.947 328.653 459.106 300.681C443.317 284.804 424.567 272.207 403.927 263.612C383.288 255.016 361.163 250.591 338.819 250.588V250.588ZM338.819 509.89C318.494 509.898 298.795 502.828 283.079 489.885C267.362 476.941 256.602 458.926 252.63 438.908C248.658 418.891 251.721 398.109 261.297 380.105C270.873 362.101 286.37 347.989 305.146 340.173C323.922 332.357 344.816 331.321 364.267 337.241C383.719 343.162 400.524 355.672 411.82 372.641C423.115 389.61 428.202 409.988 426.214 430.301C424.225 450.614 415.284 469.606 400.914 484.041C392.767 492.242 383.089 498.747 372.433 503.183C361.777 507.618 350.354 509.898 338.819 509.89V509.89Z" fill="url(#paint2_linear_1272_14434)"/>
<path d="M338.819 250.588C299.437 250.564 261.265 264.255 230.808 289.328C200.351 314.401 179.494 349.304 171.792 388.089C164.089 426.874 170.017 467.141 188.566 502.029C207.115 536.916 237.136 564.265 273.515 579.415C309.893 594.565 350.377 596.579 388.068 585.112C425.759 573.646 458.324 549.409 480.215 516.533C502.105 483.656 511.966 444.174 508.117 404.814C504.268 365.455 486.947 328.653 459.106 300.681C443.317 284.804 424.567 272.207 403.927 263.612C383.288 255.016 361.163 250.591 338.819 250.588V250.588ZM338.819 509.89C318.494 509.898 298.795 502.828 283.079 489.885C267.362 476.941 256.602 458.926 252.63 438.908C248.658 418.891 251.721 398.109 261.297 380.105C270.873 362.101 286.37 347.989 305.146 340.173C323.922 332.357 344.816 331.321 364.267 337.241C383.719 343.162 400.524 355.672 411.82 372.641C423.115 389.61 428.202 409.988 426.214 430.301C424.225 450.614 415.284 469.606 400.914 484.041C392.767 492.242 383.089 498.747 372.433 503.183C361.777 507.618 350.354 509.898 338.819 509.89V509.89Z" fill="url(#paint3_linear_1272_14434)"/>
<path d="M338.819 250.588C299.437 250.564 261.265 264.255 230.808 289.328C200.351 314.401 179.494 349.304 171.792 388.089C164.089 426.874 170.017 467.141 188.566 502.029C207.115 536.916 237.136 564.265 273.515 579.415C309.893 594.565 350.377 596.579 388.068 585.112C425.759 573.646 458.324 549.409 480.215 516.533C502.105 483.656 511.966 444.174 508.117 404.814C504.268 365.455 486.947 328.653 459.106 300.681C443.317 284.804 424.567 272.207 403.927 263.612C383.288 255.016 361.163 250.591 338.819 250.588V250.588ZM338.819 509.89C318.494 509.898 298.795 502.828 283.079 489.885C267.362 476.941 256.602 458.926 252.63 438.908C248.658 418.891 251.721 398.109 261.297 380.105C270.873 362.101 286.37 347.989 305.146 340.173C323.922 332.357 344.816 331.321 364.267 337.241C383.719 343.162 400.524 355.672 411.82 372.641C423.115 389.61 428.202 409.988 426.214 430.301C424.225 450.614 415.284 469.606 400.914 484.041C392.767 492.242 383.089 498.747 372.433 503.183C361.777 507.618 350.354 509.898 338.819 509.89V509.89Z" fill="url(#paint4_linear_1272_14434)"/>
<path d="M338.819 250.588C299.437 250.564 261.265 264.255 230.808 289.328C200.351 314.401 179.494 349.304 171.792 388.089C164.089 426.874 170.017 467.141 188.566 502.029C207.115 536.916 237.136 564.265 273.515 579.415C309.893 594.565 350.377 596.579 388.068 585.112C425.759 573.646 458.324 549.409 480.215 516.533C502.105 483.656 511.966 444.174 508.117 404.814C504.268 365.455 486.947 328.653 459.106 300.681C443.317 284.804 424.567 272.207 403.927 263.612C383.288 255.016 361.163 250.591 338.819 250.588V250.588ZM338.819 509.89C318.494 509.898 298.795 502.828 283.079 489.885C267.362 476.941 256.602 458.926 252.63 438.908C248.658 418.891 251.721 398.109 261.297 380.105C270.873 362.101 286.37 347.989 305.146 340.173C323.922 332.357 344.816 331.321 364.267 337.241C383.719 343.162 400.524 355.672 411.82 372.641C423.115 389.61 428.202 409.988 426.214 430.301C424.225 450.614 415.284 469.606 400.914 484.041C392.767 492.242 383.089 498.747 372.433 503.183C361.777 507.618 350.354 509.898 338.819 509.89V509.89Z" fill="url(#paint5_radial_1272_14434)"/>
<path d="M338.819 250.588C299.437 250.564 261.265 264.255 230.808 289.328C200.351 314.401 179.494 349.304 171.792 388.089C164.089 426.874 170.017 467.141 188.566 502.029C207.115 536.916 237.136 564.265 273.515 579.415C309.893 594.565 350.377 596.579 388.068 585.112C425.759 573.646 458.324 549.409 480.215 516.533C502.105 483.656 511.966 444.174 508.117 404.814C504.268 365.455 486.947 328.653 459.106 300.681C443.317 284.804 424.567 272.207 403.927 263.612C383.288 255.016 361.163 250.591 338.819 250.588V250.588ZM338.819 509.89C318.494 509.898 298.795 502.828 283.079 489.885C267.362 476.941 256.602 458.926 252.63 438.908C248.658 418.891 251.721 398.109 261.297 380.105C270.873 362.101 286.37 347.989 305.146 340.173C323.922 332.357 344.816 331.321 364.267 337.241C383.719 343.162 400.524 355.672 411.82 372.641C423.115 389.61 428.202 409.988 426.214 430.301C424.225 450.614 415.284 469.606 400.914 484.041C392.767 492.242 383.089 498.747 372.433 503.183C361.777 507.618 350.354 509.898 338.819 509.89V509.89Z" fill="url(#paint6_radial_1272_14434)"/>
<path d="M338.819 250.588C299.437 250.564 261.265 264.255 230.808 289.328C200.351 314.401 179.494 349.304 171.792 388.089C164.089 426.874 170.017 467.141 188.566 502.029C207.115 536.916 237.136 564.265 273.515 579.415C309.893 594.565 350.377 596.579 388.068 585.112C425.759 573.646 458.324 549.409 480.215 516.533C502.105 483.656 511.966 444.174 508.117 404.814C504.268 365.455 486.947 328.653 459.106 300.681C443.317 284.804 424.567 272.207 403.927 263.612C383.288 255.016 361.163 250.591 338.819 250.588V250.588ZM338.819 509.89C318.494 509.898 298.795 502.828 283.079 489.885C267.362 476.941 256.602 458.926 252.63 438.908C248.658 418.891 251.721 398.109 261.297 380.105C270.873 362.101 286.37 347.989 305.146 340.173C323.922 332.357 344.816 331.321 364.267 337.241C383.719 343.162 400.524 355.672 411.82 372.641C423.115 389.61 428.202 409.988 426.214 430.301C424.225 450.614 415.284 469.606 400.914 484.041C392.767 492.242 383.089 498.747 372.433 503.183C361.777 507.618 350.354 509.898 338.819 509.89V509.89Z" fill="url(#paint7_linear_1272_14434)"/>
<path d="M693.769 250.588L614.302 422.07H532.101L611.434 250.588H693.769Z" fill="white"/>
<path d="M696.653 422.07L617.319 593.553H534.984L614.303 422.07H696.653Z" fill="white"/>
<defs>
<filter id="filter0_d_1272_14434" x="0" y="0" width="868" height="868" filterUnits="userSpaceOnUse" color-interpolation-filters="sRGB">
<feFlood flood-opacity="0" result="BackgroundImageFix"/>
<feColorMatrix in="SourceAlpha" type="matrix" values="0 0 0 0 0 0 0 0 0 0 0 0 0 0 0 0 0 0 127 0" result="hardAlpha"/>
<feOffset dy="11"/>
<feGaussianBlur stdDeviation="11"/>
<feColorMatrix type="matrix" values="0 0 0 0 0 0 0 0 0 0 0 0 0 0 0 0 0 0 0.28 0"/>
<feBlend mode="normal" in2="BackgroundImageFix" result="effect1_dropShadow_1272_14434"/>
<feBlend mode="normal" in="SourceGraphic" in2="effect1_dropShadow_1272_14434" result="shape"/>
</filter>
<linearGradient id="paint0_linear_1272_14434" x1="434" y1="11" x2="434" y2="835" gradientUnits="userSpaceOnUse">
<stop stop-color="#111827" stop-opacity="0.59"/>
<stop offset="0.828125" stop-color="#111827"/>
</linearGradient>
<radialGradient id="paint1_radial_1272_14434" cx="0" cy="0" r="1" gradientUnits="userSpaceOnUse" gradientTransform="translate(477.442 387.847) rotate(105.64) scale(345.685 157.374)">
<stop stop-color="#FFFECB"/>
<stop offset="0.344597" stop-color="#FEE4BF"/>
<stop offset="0.695017" stop-color="#F0BDD0"/>
<stop offset="1" stop-color="#FF8126" stop-opacity="0"/>
</radialGradient>
<linearGradient id="paint2_linear_1272_14434" x1="361.91" y1="227.497" x2="443.125" y2="291.903" gradientUnits="userSpaceOnUse">
<stop stop-color="#C0A9F0" stop-opacity="0"/>
<stop offset="0.456382" stop-color="#C0A9F0"/>
<stop offset="1" stop-color="#C0A9F0" stop-opacity="0"/>
</linearGradient>
<linearGradient id="paint3_linear_1272_14434" x1="533.188" y1="170.413" x2="437.896" y2="298.911" gradientUnits="userSpaceOnUse">
<stop stop-color="#C0A9F0" stop-opacity="0"/>
<stop offset="0.461891" stop-color="#C0A9F0"/>
<stop offset="1" stop-color="#C0A9F0" stop-opacity="0"/>
</linearGradient>
<linearGradient id="paint4_linear_1272_14434" x1="255.1" y1="304.465" x2="348.752" y2="396.404" gradientUnits="userSpaceOnUse">
<stop stop-color="#3FFFB5" stop-opacity="0.54"/>
<stop offset="1" stop-color="#CDF9E8" stop-opacity="0"/>
</linearGradient>
<radialGradient id="paint5_radial_1272_14434" cx="0" cy="0" r="1" gradientUnits="userSpaceOnUse" gradientTransform="translate(323.611 403.241) rotate(-117.26) scale(104.984 206.944)">
<stop stop-color="#CBADEB"/>
<stop offset="1" stop-color="#C2A6F1" stop-opacity="0"/>
</radialGradient>
<radialGradient id="paint6_radial_1272_14434" cx="0" cy="0" r="1" gradientUnits="userSpaceOnUse" gradientTransform="translate(290.632 592.454) rotate(-124.985) scale(149.919 199.362)">
<stop stop-color="#DC8DDC"/>
<stop offset="1" stop-color="#DC8DDC" stop-opacity="0"/>
</radialGradient>
<linearGradient id="paint7_linear_1272_14434" x1="168.504" y1="250.588" x2="241.142" y2="298.194" gradientUnits="userSpaceOnUse">
<stop stop-color="#FFB762"/>
<stop offset="1" stop-color="#EBF3D0" stop-opacity="0"/>
</linearGradient>
</defs>
</svg>
